<svg width="120" height="120" viewBox="0 0 120 120" fill="none" xmlns="http://www.w3.org/2000/svg">
<rect width="120" height="120" rx="7.03125" fill="url(#paint0_linear_563_387)"/>
<path d="M72.6465 60C81.6797 60 88.9062 67.2266 88.9062 76.2598C88.9062 79.4394 88.0029 82.4385 86.4131 84.9316L97.542 96.1328L92.5195 101.155L81.2461 90.0625C78.7529 91.6162 75.79 92.5195 72.6465 92.5195C63.6133 92.5195 56.3867 85.293 56.3867 76.2598C56.3867 67.2266 63.6133 60 72.6465 60ZM72.6465 67.2266C70.2507 67.2266 67.9531 68.1783 66.259 69.8723C64.565 71.5664 63.6133 73.864 63.6133 76.2598C63.6133 78.6555 64.565 80.9531 66.259 82.6472C67.9531 84.3413 70.2507 85.293 72.6465 85.293C75.0422 85.293 77.3399 84.3413 79.0339 82.6472C80.728 80.9531 81.6797 78.6555 81.6797 76.2598C81.6797 73.864 80.728 71.5664 79.0339 69.8723C77.3399 68.1783 75.0422 67.2266 72.6465 67.2266ZM63.6133 31.0937V60L54.5801 51.8701L45.5469 60V31.0937H38.3203V88.9062H52.7734C54.7246 91.833 57.2178 94.3262 60.1084 96.1328H38.3203C36.4037 96.1328 34.5656 95.3714 33.2104 94.0162C31.8551 92.661 31.0938 90.8228 31.0938 88.9062V31.0937C31.0938 29.1771 31.8551 27.339 33.2104 25.9838C34.5656 24.6286 36.4037 23.8672 38.3203 23.8672H81.6797C83.5963 23.8672 85.4344 24.6286 86.7896 25.9838C88.1449 27.339 88.9062 29.1771 88.9062 31.0937V59.3135C86.8105 57.3262 84.3896 55.7002 81.6797 54.5801V31.0937H63.6133Z" fill="white"/>
<defs>
<linearGradient id="paint0_linear_563_387" x1="117.891" y1="1.99218" x2="2.57812" y2="120" gradientUnits="userSpaceOnUse">
<stop stop-color="#4A77EC"/>
<stop offset="1" stop-color="#3419A0"/>
</linearGradient>
</defs>
</svg>
